<?xml version="1.0" encoding="UTF-8" standalone="no"?>
<!-- Created with Inkscape (http://www.inkscape.org/) -->

<svg
   xmlns:dc="http://purl.org/dc/elements/1.1/"
   xmlns:cc="http://creativecommons.org/ns#"
   xmlns:rdf="http://www.w3.org/1999/02/22-rdf-syntax-ns#"
   xmlns:svg="http://www.w3.org/2000/svg"
   xmlns="http://www.w3.org/2000/svg"
   xmlns:xlink="http://www.w3.org/1999/xlink"
   xmlns:sodipodi="http://sodipodi.sourceforge.net/DTD/sodipodi-0.dtd"
   xmlns:inkscape="http://www.inkscape.org/namespaces/inkscape"
   version="1.1"
   id="svg3753"
   width="3462.3999"
   height="2310.3999"
   viewBox="0 0 3462.3999 2310.3999"
   sodipodi:docname="map.svg"
   inkscape:version="0.92.2 5c3e80d, 2017-08-06">
  <metadata
     id="metadata3759">
    <rdf:RDF>
      <cc:Work
         rdf:about="">
        <dc:format>image/svg+xml</dc:format>
        <dc:type
           rdf:resource="http://purl.org/dc/dcmitype/StillImage" />
        <dc:title></dc:title>
      </cc:Work>
    </rdf:RDF>
  </metadata>
  <defs
     id="defs3757" />
  <sodipodi:namedview
     pagecolor="#ffffff"
     bordercolor="#666666"
     borderopacity="1"
     objecttolerance="10"
     gridtolerance="10"
     guidetolerance="10"
     inkscape:pageopacity="0"
     inkscape:pageshadow="2"
     inkscape:window-width="3444"
     inkscape:window-height="1400"
     id="namedview3755"
     showgrid="false"
     inkscape:zoom="0.74860771"
     inkscape:cx="912.9061"
     inkscape:cy="1436.3203"
     inkscape:window-x="0"
     inkscape:window-y="0"
     inkscape:window-maximized="0"
     inkscape:current-layer="svg3753" />
  <image
     sodipodi:absref="/Users/bewguy101/dev/flatiron/diplomacy/frontend/assets/map.png"
     xlink:href="map.png"
     y="0"
     x="0"
     id="image3761"
     preserveAspectRatio="none"
     height="2310.3999"
     width="3462.3999" />
  <path
     style="fill:#6f918a;stroke:#000000;stroke-width:1px;stroke-linecap:butt;stroke-linejoin:miter;stroke-opacity:1"
     d="m 1131.1258,1250.6396 19.7679,12.7318 1.3402,2.0103 11.0566,7.3711 33.1699,22.1133 11.7267,8.0411 21.1081,12.3969 24.7936,12.3968 11.0566,4.6907 14.4071,3.6855 9.7165,1.3402 5.0257,-0.3351 4.6907,-4.6906 4.6907,-2.6804 3.6855,-4.6907 1.0052,-3.0155 -0.6701,-8.7112 -8.0412,-13.402 -6.701,-10.0515 -6.3659,-14.4071 -2.6804,-11.0566 -3.0155,-15.4123 -3.0154,-9.3813 -10.3865,-11.3917 -8.3763,-5.0257 -12.0617,-5.6959 -11.7267,-5.6958 -14.4072,-6.701 -3.3504,-3.6855 -20.7731,2.6804 -21.1081,4.3556 -13.0669,4.3556 -12.3968,9.3814 -7.3711,11.0566 -11.3917,15.4123 z"
     id="path3765"
     inkscape:connector-curvature="0" />
  <path
     style="fill:#0000ff;stroke:#000000;stroke-width:1px;stroke-linecap:butt;stroke-linejoin:miter;stroke-opacity:1"
     d="m 983.49241,816.29293 5.6772,1.00186 13.69209,1.33582 13.0242,3.00558 11.3544,4.00743 8.0149,5.34326 0.6679,-15.36185 2.3376,-34.73114 5.6772,-28.71999 4.3414,-20.03719 3.0056,-9.3507 7.347,-9.01673 15.3618,-5.34326 8.3489,-5.0093 2.6716,-6.67906 -20.3711,-3.00558 -8.3489,-0.33395 -14.026,4.67534 -18.3674,9.35069 -20.7052,13.02418 -10.01855,7.34697 -6.34511,2.00372 -8.01488,-3.33953 -3.33953,-4.67535 -5.0093,3.33954 0.33395,5.34325 7.68093,12.35627 2.00372,7.68093 v 7.68092 l -2.00372,12.69023 -4.00744,13.69208 -2.00372,8.68279 7.01302,0.33395 8.68278,4.34139 2.67163,5.34325 -0.33395,5.67721 -3.00558,4.34139 z"
     id="path3788"
     inkscape:connector-curvature="0" />
</svg>
